<?xml version="1.0" encoding="UTF-8"?>
<svg width="115px" height="115px" viewBox="0 0 115 115" version="1.1" xmlns="http://www.w3.org/2000/svg" xmlns:xlink="http://www.w3.org/1999/xlink">
    <!-- Generator: Sketch 43.1 (39012) - http://www.bohemiancoding.com/sketch -->
    <title>groups</title>
    <desc>Created with Sketch.</desc>
    <defs>
        <circle id="path-1" cx="54.5" cy="54.5" r="54.5"></circle>
        <path d="M35.3851055,6.64320901 L29.5470106,6.64320901 C28.4468034,6.64320901 27.5432099,7.53872484 27.5432099,8.64339959 L27.5432099,52.252683 C27.5432099,53.3652128 28.440342,54.2528736 29.5470106,54.2528736 L94.9961993,54.2528736 C96.0964064,54.2528736 97,53.3573577 97,52.252683 L97,8.64339959 C97,7.53086982 96.1028679,6.64320901 94.9961993,6.64320901 L55.0864198,6.64320901 L55.0864198,2.00505839 C55.0864198,0.887353295 54.1921145,0 53.0889331,0 L37.3825922,0 C36.2828243,0 35.3851055,0.897695219 35.3851055,2.00505839 L35.3851055,6.64320901 Z" id="path-2"></path>
        <path d="M21.0147352,18.437312 L15.1766402,18.437312 C14.0764331,18.437312 13.1728395,19.3328278 13.1728395,20.4375025 L13.1728395,64.0467859 C13.1728395,65.1593157 14.0699717,66.0469765 15.1766402,66.0469765 L80.6258289,66.0469765 C81.7260361,66.0469765 82.6296296,65.1514607 82.6296296,64.0467859 L82.6296296,20.4375025 C82.6296296,19.3249728 81.7324975,18.437312 80.6258289,18.437312 L40.7160494,18.437312 L40.7160494,13.7991613 C40.7160494,12.6814562 39.8217441,11.7941029 38.7185627,11.7941029 L23.0122218,11.7941029 C21.9124539,11.7941029 21.0147352,12.6917982 21.0147352,13.7991613 L21.0147352,18.437312 Z" id="path-3"></path>
        <path d="M7.84189566,32.3903354 L2.00380073,32.3903354 C0.903593566,32.3903354 0,33.2858513 0,34.390526 L0,77.9998094 C0,79.1123392 0.897132147,80 2.00380073,80 L67.4529894,80 C68.5531966,80 69.4567901,79.1044842 69.4567901,77.9998094 L69.4567901,34.390526 C69.4567901,33.2779963 68.559658,32.3903354 67.4529894,32.3903354 L27.5432099,32.3903354 L27.5432099,27.7521848 C27.5432099,26.6344797 26.6489046,25.7471264 25.5457232,25.7471264 L9.83938234,25.7471264 C8.7396144,25.7471264 7.84189566,26.6448217 7.84189566,27.7521848 L7.84189566,32.3903354 Z" id="path-4"></path>
    </defs>
    <g id="up-to-do-UI" stroke="none" stroke-width="1" fill="none" fill-rule="evenodd" stroke-linecap="square">
        <g id="Landing-Page-Copy" transform="translate(-143.000000, -742.000000)">
            <g id="groups" transform="translate(146.000000, 745.000000)">
                <g id="Oval-4">
                    <use fill="#FFFFFF" fill-rule="evenodd" xlink:href="#path-1"></use>
                    <circle stroke="#4A4A4A" stroke-width="3" cx="54.5" cy="54.5" r="56"></circle>
                </g>
                <g id="Group" transform="translate(7.000000, 11.000000)">
                    <g id="Combined-Shape">
                        <use fill="#CDD8E8" fill-rule="evenodd" xlink:href="#path-2"></use>
                        <path stroke="#4A4A4A" stroke-width="3" d="M33.8851055,5.14320901 L29.5470106,5.14320901 C27.6174943,5.14320901 26.0432099,6.71116473 26.0432099,8.64339959 L26.0432099,52.252683 C26.0432099,54.1924484 27.6107035,55.7528736 29.5470106,55.7528736 L94.9961993,55.7528736 C96.9257156,55.7528736 98.5,54.1849178 98.5,52.252683 L98.5,8.64339959 C98.5,6.70363419 96.9325064,5.14320901 94.9961993,5.14320901 L56.5864198,5.14320901 L56.5864198,2.00505839 C56.5864198,0.0625699274 55.0241846,-1.5 53.0889331,-1.5 L37.3825922,-1.5 C35.4523427,-1.5 33.8851055,0.0713231335 33.8851055,2.00505839 L33.8851055,5.14320901 Z"></path>
                    </g>
                    <g id="Combined-Shape-Copy">
                        <use fill="#FFFFFF" fill-rule="evenodd" xlink:href="#path-3"></use>
                        <path stroke="#4A4A4A" stroke-width="3" d="M19.5147352,16.937312 L15.1766402,16.937312 C13.2471239,16.937312 11.6728395,18.5052677 11.6728395,20.4375025 L11.6728395,64.0467859 C11.6728395,65.9865513 13.2403332,67.5469765 15.1766402,67.5469765 L80.6258289,67.5469765 C82.5553452,67.5469765 84.1296296,65.9790208 84.1296296,64.0467859 L84.1296296,20.4375025 C84.1296296,18.4977371 82.562136,16.937312 80.6258289,16.937312 L42.2160494,16.937312 L42.2160494,13.7991613 C42.2160494,11.8566729 40.6538143,10.2941029 38.7185627,10.2941029 L23.0122218,10.2941029 C21.0819723,10.2941029 19.5147352,11.8654261 19.5147352,13.7991613 L19.5147352,16.937312 Z"></path>
                    </g>
                    <g id="Combined-Shape-Copy-2">
                        <use fill="#EF5350" fill-rule="evenodd" xlink:href="#path-4"></use>
                        <path stroke="#4A4A4A" stroke-width="3" d="M6.34189566,30.8903354 L2.00380073,30.8903354 C0.07428443,30.8903354 -1.5,32.4582912 -1.5,34.390526 L-1.5,77.9998094 C-1.5,79.9395748 0.0674936499,81.5 2.00380073,81.5 L67.4529894,81.5 C69.3825057,81.5 70.9567901,79.9320443 70.9567901,77.9998094 L70.9567901,34.390526 C70.9567901,32.4507606 69.3892965,30.8903354 67.4529894,30.8903354 L29.0432099,30.8903354 L29.0432099,27.7521848 C29.0432099,25.8096964 27.4809748,24.2471264 25.5457232,24.2471264 L9.83938234,24.2471264 C7.9091328,24.2471264 6.34189566,25.8184496 6.34189566,27.7521848 L6.34189566,30.8903354 Z"></path>
                    </g>
                </g>
            </g>
        </g>
    </g>
</svg>