<?xml version="1.0" encoding="UTF-8" standalone="no"?>
<svg width="186px" height="50px" viewBox="0 0 186 50" version="1.1" xmlns="http://www.w3.org/2000/svg" xmlns:xlink="http://www.w3.org/1999/xlink" xmlns:sketch="http://www.bohemiancoding.com/sketch/ns">
    <!-- Generator: Sketch 3.3.3 (12081) - http://www.bohemiancoding.com/sketch -->
    <title>logo-sm</title>
    <desc>Created with Sketch.</desc>
    <defs></defs>
    <g id="up-to-do-UI" stroke="none" stroke-width="1" fill="none" fill-rule="evenodd" sketch:type="MSPage">
        <g id="Manager" sketch:type="MSArtboardGroup" transform="translate(-50.000000, -27.000000)" fill="#E64A19">
            <g id="logo-sm" sketch:type="MSLayerGroup" transform="translate(50.000000, 27.000000)">
                <path d="M6.12304366,39.9157173 L6.12304366,49.1209469 C5.98520348,49.1959471 5.77160382,49.2261555 5.43489499,49.2261555 C5.09923837,49.2261555 4.8709077,49.1959471 4.73306752,49.1209469 L4.73306752,39.9157173 L1.4196422,39.9157173 C1.34388271,39.7646753 1.31231626,39.5521748 1.31231626,39.2959242 C1.31231626,39.038632 1.34388271,38.8427982 1.4196422,38.6907145 L9.42068575,38.6907145 C9.49749746,38.8427982 9.52695948,39.038632 9.52695948,39.2959242 C9.52695948,39.5521748 9.49749746,39.7646753 9.42068575,39.9157173 L6.12304366,39.9157173" id="Fill-1" sketch:type="MSShapeGroup"></path>
                <path d="M22.0377969,46.1730235 L17.5785094,46.1730235 L16.5252421,49.1063636 C16.3726709,49.1813638 16.1443402,49.2261555 15.7771171,49.2261555 C15.4414605,49.2261555 15.2120776,49.1813638 15.0900207,49.1063636 L18.9832165,38.6605061 C19.1515709,38.6000893 19.5177418,38.5698809 19.8386674,38.5698809 C20.159593,38.5698809 20.5257638,38.6000893 20.6941182,38.6605061 L24.5567998,49.1063636 C24.4347429,49.1813638 24.1895768,49.2261555 23.8549724,49.2261555 C23.4877493,49.2261555 23.2583664,49.1813638 23.1057952,49.1063636 L22.0377969,46.1730235 L22.0377969,46.1730235 Z M21.6253286,44.9938541 L20.8161752,42.7271822 C20.4184379,41.6230129 20.0827813,40.5657188 19.8386674,39.4615496 L19.7776389,39.4615496 C19.548256,40.5198854 19.1673541,41.6844714 18.8001311,42.7115571 L17.9909777,44.9938541 L21.6253286,44.9938541 L21.6253286,44.9938541 Z" id="Fill-2" sketch:type="MSShapeGroup"></path>
                <path d="M35.0221311,48.289695 C36.7014664,48.289695 37.4190771,47.5938601 37.4190771,46.5053159 C37.4190771,43.6792677 32.0138482,44.9646873 32.0138482,41.2459287 C32.0138482,39.3865494 33.2817674,38.3438387 35.388302,38.3438387 C36.3805408,38.3438387 37.2665059,38.5698809 37.9988476,39.054257 C38.2134995,39.4011328 38.3513397,40.0511343 38.274528,40.5198854 C37.4948366,39.9459257 36.518381,39.5823832 35.4651137,39.5823832 C34.1056518,39.5823832 33.4185553,40.1719679 33.4185553,41.0636366 C33.4185553,43.6938511 38.8090533,42.5303067 38.8090533,46.3240655 C38.8090533,48.7584461 37.0529063,49.5438646 35.0063479,49.5438646 C33.8005094,49.5438646 32.7167279,49.271989 31.983334,48.8636547 C31.7392201,48.4855288 31.6476773,47.8511523 31.7087058,47.3969846 C32.5788877,47.9574026 33.8773211,48.289695 35.0221311,48.289695" id="Fill-3" sketch:type="MSShapeGroup"></path>
                <path d="M47.1510145,38.7667563 C47.2878025,38.6907145 47.5171854,38.6605061 47.852842,38.6605061 C48.1895508,38.6605061 48.4031505,38.6907145 48.5399384,38.7667563 L48.5399384,43.2105166 L49.8078576,43.2105166 L53.150745,38.7813397 C53.3190994,38.7063395 53.625294,38.6605061 54.0061958,38.6605061 C54.4028809,38.6605061 54.6164806,38.7063395 54.7543208,38.7813397 L50.9368844,43.8001013 L55.1215438,49.1063636 C54.9984347,49.1959471 54.7238065,49.2261555 54.3113382,49.2261555 C53.8999221,49.2261555 53.5937275,49.1959471 53.3959111,49.1063636 L49.7163149,44.4198944 L48.5399384,44.4198944 L48.5399384,49.1209469 C48.4031505,49.1959471 48.1895508,49.2261555 47.852842,49.2261555 C47.5171854,49.2261555 47.2878025,49.1959471 47.1510145,49.1209469 L47.1510145,38.7667563" id="Fill-4" sketch:type="MSShapeGroup"></path>
                <path d="M81.2848721,39.7042585 L81.2238436,39.7042585 C81.0407582,40.5803022 80.7966443,41.487596 80.5062329,42.3188479 L78.0787727,49.2115722 C77.9567157,49.271989 77.6663044,49.3178224 77.3453788,49.3178224 C77.0244532,49.3178224 76.735094,49.271989 76.6130371,49.2115722 L74.1697936,42.3032228 C73.9404107,41.6688464 73.6657826,40.5803022 73.4826972,39.7042585 L73.4216687,39.7042585 L73.4216687,49.1209469 C73.2838285,49.1959471 73.0860121,49.2261555 72.7493032,49.2261555 C72.4441609,49.2261555 72.2452922,49.1959471 72.1085043,49.1209469 L72.1085043,38.7813397 C72.3378871,38.7063395 72.6882748,38.6605061 73.1775548,38.6605061 C73.6815658,38.6605061 74.0172224,38.7063395 74.2455531,38.7813397 L76.5814706,45.2511463 C76.9034484,46.1428151 77.1475623,47.140734 77.3306478,48.138653 L77.3916762,48.138653 C77.5747617,47.1261507 77.8493898,46.1282317 78.1545322,45.2667714 L80.4452044,38.7813397 C80.6745873,38.7063395 81.0260272,38.6605061 81.514255,38.6605061 C82.0172138,38.6605061 82.3686536,38.7063395 82.5980365,38.7813397 L82.5980365,49.1209469 C82.4601963,49.1959471 82.2781631,49.2261555 81.9414543,49.2261555 C81.6363119,49.2261555 81.4227122,49.1959471 81.2848721,49.1209469 L81.2848721,39.7042585" id="Fill-5" sketch:type="MSShapeGroup"></path>
                <path d="M97.4616269,46.1730235 L93.0033915,46.1730235 L91.9501242,49.1063636 C91.7965008,49.1813638 91.5681702,49.2261555 91.2019993,49.2261555 C90.8652905,49.2261555 90.6369598,49.1813638 90.5149028,49.1063636 L94.4080987,38.6605061 C94.5764531,38.6000893 94.942624,38.5698809 95.2624973,38.5698809 C95.5844752,38.5698809 95.950646,38.6000893 96.1179482,38.6605061 L99.981682,49.1063636 C99.8596251,49.1813638 99.614459,49.2261555 99.2788023,49.2261555 C98.9126315,49.2261555 98.6832486,49.1813638 98.5306774,49.1063636 L97.4616269,46.1730235 L97.4616269,46.1730235 Z M97.0502108,44.9938541 L96.2400052,42.7271822 C95.8433201,41.6230129 95.5076635,40.5657188 95.2624973,39.4615496 L95.2025211,39.4615496 C94.9731382,40.5198854 94.5911841,41.6844714 94.2250133,42.7115571 L93.4158599,44.9938541 L97.0502108,44.9938541 L97.0502108,44.9938541 Z" id="Fill-6" sketch:type="MSShapeGroup"></path>
                <path d="M109.193825,49.1209469 C109.055985,49.1959471 108.8729,49.2261555 108.553026,49.2261555 C108.232101,49.2261555 108.034284,49.1959471 107.896444,49.1209469 L107.896444,38.7511313 C108.110044,38.6907145 108.369941,38.6459227 108.812923,38.6459227 C109.240123,38.6459227 109.484237,38.6907145 109.682053,38.7511313 L113.835146,45.5084386 C114.278128,46.2188569 114.645352,47.0199004 114.874734,47.8209439 L114.934711,47.8209439 L114.934711,38.7667563 C115.072551,38.6907145 115.255636,38.6605061 115.576562,38.6605061 C115.896435,38.6605061 116.095304,38.6907145 116.233144,38.7667563 L116.233144,49.1667804 C116.050059,49.2261555 115.804893,49.271989 115.362962,49.271989 C114.950494,49.271989 114.690597,49.2261555 114.523295,49.1667804 L110.187116,42.1073891 C109.80411,41.5021793 109.468453,40.7011358 109.254854,39.9605091 L109.193825,39.9605091 L109.193825,49.1209469" id="Fill-7" sketch:type="MSShapeGroup"></path>
                <path d="M131.095682,46.1730235 L126.637447,46.1730235 L125.583127,49.1063636 C125.431608,49.1813638 125.202226,49.2261555 124.835002,49.2261555 C124.499346,49.2261555 124.269963,49.1813638 124.147906,49.1063636 L128.042154,38.6605061 C128.209456,38.6000893 128.576679,38.5698809 128.897605,38.5698809 C129.217478,38.5698809 129.583649,38.6000893 129.752004,38.6605061 L133.614685,49.1063636 C133.492628,49.1813638 133.249567,49.2261555 132.912858,49.2261555 C132.546687,49.2261555 132.317304,49.1813638 132.164733,49.1063636 L131.095682,46.1730235 L131.095682,46.1730235 Z M130.683214,44.9938541 L129.874061,42.7271822 C129.476323,41.6230129 129.140667,40.5657188 128.897605,39.4615496 L128.835524,39.4615496 C128.606141,40.5198854 128.22524,41.6844714 127.858016,42.7115571 L127.049915,44.9938541 L130.683214,44.9938541 L130.683214,44.9938541 Z" id="Fill-8" sketch:type="MSShapeGroup"></path>
                <path d="M145.638347,49.5438646 C142.401733,49.5438646 140.491963,47.5334433 140.491963,44.1021853 C140.491963,40.338635 142.766852,38.3438387 145.974004,38.3438387 C146.980974,38.3438387 147.897453,38.5250891 148.569818,38.8875899 C148.783418,39.2198824 148.920206,39.7948837 148.859177,40.2323847 C148.020562,39.8094671 147.118814,39.5980083 146.157089,39.5980083 C143.699115,39.5980083 141.928237,40.9125946 141.928237,43.9969768 C141.928237,46.9594836 143.514977,48.27407 145.836163,48.27407 C146.645317,48.27407 147.439739,48.1084446 147.974265,47.8813607 L147.974265,44.6469783 L145.286907,44.6469783 C145.24061,44.540728 145.195365,44.3292692 145.195365,44.0417685 C145.195365,43.7855179 145.24061,43.5740591 145.286907,43.4678089 L149.30216,43.4678089 L149.30216,48.7282377 C148.431978,49.1667804 147.027271,49.5438646 145.638347,49.5438646" id="Fill-9" sketch:type="MSShapeGroup"></path>
                <path d="M164.668709,38.6907145 C164.744469,38.8427982 164.774983,39.038632 164.774983,39.2959242 C164.774983,39.5521748 164.744469,39.7490503 164.668709,39.9000923 L159.324509,39.9000923 L159.324509,43.25635 L164.286755,43.25635 C164.363567,43.4073921 164.393029,43.5886425 164.393029,43.8459347 C164.393029,44.1021853 164.363567,44.2990608 164.286755,44.4501028 L159.324509,44.4501028 L159.324509,47.971986 L164.806549,47.971986 C164.882309,48.123028 164.912823,48.3199034 164.912823,48.5771957 C164.912823,48.8334463 164.882309,49.0449051 164.806549,49.1959471 L157.934533,49.1959471 L157.934533,38.6907145 L164.668709,38.6907145" id="Fill-10" sketch:type="MSShapeGroup"></path>
                <path d="M173.331596,38.7813397 C174.171264,38.6157143 175.148772,38.5396725 176.14101,38.5396725 C178.966208,38.5396725 180.660274,39.5521748 180.660274,41.8803052 C180.660274,43.4678089 179.866904,44.4501028 178.645282,44.8886455 L181.363154,49.1063636 C181.241097,49.1959471 180.966469,49.2261555 180.630812,49.2261555 C180.18783,49.2261555 179.927932,49.1959471 179.714333,49.1063636 L177.271089,45.2063546 C177.149032,45.2209379 176.813376,45.236563 176.583993,45.236563 C176.034737,45.236563 175.132988,45.1761462 174.72052,45.1157293 L174.72052,49.1209469 C174.583732,49.1959471 174.370132,49.2261555 174.033424,49.2261555 C173.698819,49.2261555 173.469436,49.1959471 173.331596,49.1209469 L173.331596,38.7813397 L173.331596,38.7813397 Z M174.72052,39.8698839 L174.72052,43.9053099 C175.132988,43.9813517 175.835868,44.0417685 176.386176,44.0417685 C178.218083,44.0417685 179.240836,43.4521838 179.240836,41.9709304 C179.240836,40.3844684 178.049729,39.7490503 176.156794,39.7490503 C175.667514,39.7490503 175.179286,39.7792587 174.72052,39.8698839 L174.72052,39.8698839 Z" id="Fill-11" sketch:type="MSShapeGroup"></path>
                <path d="M0.084381249,5.53751281 C0.084381249,1.86354598 1.37229252,0.513542854 4.44055173,0.513542854 L5.23497412,0.513542854 C8.30323333,0.513542854 9.5911446,1.86354598 9.5911446,5.53751281 L9.5911446,15.5489943 C9.5911446,16.8614973 9.66690409,18.024 10.0835813,18.8490019 C10.6517774,19.9740045 11.7871175,20.5740059 12.9992693,20.5740059 L13.6053452,20.5740059 C14.817497,20.5740059 15.9538893,19.9740045 16.5220854,18.8490019 C16.9387626,18.024 17.0145221,16.8614973 17.0145221,15.5489943 L17.0145221,5.53751281 C17.0145221,4.22605144 17.0902816,3.06250708 17.5069587,2.23854684 C18.0751549,1.11354424 19.2115472,0.513542854 20.4226468,0.513542854 L21.0297749,0.513542854 C22.2419266,0.513542854 23.3772667,1.11354424 23.9454629,2.23854684 C24.3621401,3.06250708 24.4378995,4.22605144 24.4378995,5.53751281 L24.4378995,17.9864999 C24.4378995,24.5479734 20.6130977,27.5104803 15.1962944,27.5104803 L10.3487395,27.5104803 C4.21327327,27.5104803 0.084381249,24.0604723 0.084381249,17.9114998 L0.084381249,5.53751281" id="Fill-12" sketch:type="MSShapeGroup"></path>
                <path d="M42.545469,0.513542854 C48.5294163,0.513542854 52.2037514,4.22605144 52.2037514,9.21252131 C52.2037514,11.687527 51.3325173,14.2375329 49.3248909,15.6614946 C47.7349939,16.7864972 45.7273675,17.0489978 42.545469,17.0489978 L36.978199,17.0489978 L36.978199,22.4854687 C36.978199,26.1604772 35.6902877,27.5104803 32.6220285,27.5104803 L31.8265539,27.5104803 C28.7593469,27.5104803 27.4714356,26.1604772 27.4714356,22.4854687 L27.4714356,5.53751281 C27.4714356,1.86354598 28.7593469,0.513542854 31.8265539,0.513542854 L42.545469,0.513542854 L42.545469,0.513542854 Z M39.7055405,11.8739858 C40.4999629,11.8739858 41.219678,11.7614855 41.7121147,11.5000266 C42.3939501,11.1250257 42.7727475,10.4500242 42.7727475,9.66252235 C42.7727475,8.87502053 42.3939501,8.20001897 41.7121147,7.8250181 C41.219678,7.56251749 40.4999629,7.45001723 39.7055405,7.45001723 L36.978199,7.45001723 L36.978199,11.8739858 L39.7055405,11.8739858 L39.7055405,11.8739858 Z" id="Fill-13" sketch:type="MSShapeGroup"></path>
                <path d="M86.4091596,0.513542854 C88.4925454,0.513542854 89.8940959,1.93854615 89.8940959,4.00000925 C89.8940959,6.06251402 88.4925454,7.48751732 86.4091596,7.48751732 L81.1070477,7.48751732 L81.1070477,22.4854687 C81.1070477,26.1604772 79.8191364,27.5104803 76.7508772,27.5104803 L75.9554026,27.5104803 C72.8881956,27.5104803 71.6002844,26.1604772 71.6002844,22.4854687 L71.6002844,7.48751732 L66.2981725,7.48751732 C64.2147866,7.48751732 62.8132361,6.06251402 62.8132361,4.00000925 C62.8132361,1.93854615 64.2147866,0.513542854 66.2981725,0.513542854 L86.4091596,0.513542854" id="Fill-14" sketch:type="MSShapeGroup"></path>
                <path d="M91.0325927,13.8614904 C91.0325927,10.1875236 92.2826242,6.7000155 94.7069278,4.30000995 C97.4332171,1.63854546 100.804514,0.513542854 104.478849,0.513542854 L105.236444,0.513542854 C108.910779,0.513542854 112.282076,1.63854546 115.008366,4.30000995 C117.431617,6.7000155 118.682701,10.1875236 118.682701,13.8614904 L118.682701,14.1614911 C118.682701,17.8364996 117.431617,21.322966 115.008366,23.7229715 C112.282076,26.3854777 108.910779,27.5104803 105.236444,27.5104803 L104.478849,27.5104803 C100.804514,27.5104803 97.4332171,26.3854777 94.7069278,23.7229715 C92.2826242,21.322966 91.0325927,17.8364996 91.0325927,14.1614911 L91.0325927,13.8614904 L91.0325927,13.8614904 Z M100.690875,14.7239924 C100.690875,16.5239966 100.918153,18.0990002 101.675748,19.1490026 C102.395463,20.1604633 103.569735,20.5740059 104.857647,20.5740059 C106.145558,20.5740059 107.31983,20.1604633 108.038493,19.1490026 C108.796088,18.0990002 109.023366,16.5239966 109.023366,14.7239924 L109.023366,13.3000308 C109.023366,11.5000266 108.796088,9.92502296 108.038493,8.87502053 C107.31983,7.86251819 106.145558,7.45001723 104.857647,7.45001723 C103.569735,7.45001723 102.395463,7.8250181 101.675748,8.87502053 C100.956033,9.92502296 100.690875,11.5000266 100.690875,13.3000308 L100.690875,14.7239924 L100.690875,14.7239924 Z" id="Fill-15" sketch:type="MSShapeGroup"></path>
                <path d="M143.343466,0.513542854 C147.016749,0.513542854 150.463805,1.63854546 153.077508,4.41251021 C155.501811,7.00001619 156.524564,10.1875236 156.524564,13.8614904 L156.524564,14.1614911 C156.524564,17.8364996 155.501811,21.024007 153.077508,23.6104713 C150.463805,26.3854777 147.016749,27.5104803 143.343466,27.5104803 L134.784748,27.5104803 C131.715437,27.5104803 130.428578,26.1604772 130.428578,22.4854687 L130.428578,5.53751281 C130.428578,1.86354598 131.715437,0.513542854 134.784748,0.513542854 L143.343466,0.513542854 L143.343466,0.513542854 Z M147.244027,13.3000308 C147.244027,11.3875263 147.055681,9.77502261 146.183394,8.76252027 C145.388972,7.8250181 144.063181,7.45001723 142.69951,7.45001723 L139.934289,7.45001723 L139.934289,20.5740059 L142.69951,20.5740059 C144.063181,20.5740059 145.388972,20.1990051 146.183394,19.2615029 C147.055681,18.2490005 147.244027,16.6364968 147.244027,14.7239924 L147.244027,13.3000308 L147.244027,13.3000308 Z" id="Fill-16" sketch:type="MSShapeGroup"></path>
                <path d="M158.041859,13.8614904 C158.041859,10.1875236 159.292942,6.7000155 161.716194,4.30000995 C164.443535,1.63854546 167.81378,0.513542854 171.488115,0.513542854 L172.24571,0.513542854 C175.918993,0.513542854 179.29029,1.63854546 182.016579,4.30000995 C184.440883,6.7000155 185.690915,10.1875236 185.690915,13.8614904 L185.690915,14.1614911 C185.690915,17.8364996 184.440883,21.322966 182.016579,23.7229715 C179.29029,26.3854777 175.918993,27.5104803 172.24571,27.5104803 L171.488115,27.5104803 C167.81378,27.5104803 164.443535,26.3854777 161.716194,23.7229715 C159.292942,21.322966 158.041859,17.8364996 158.041859,14.1614911 L158.041859,13.8614904 L158.041859,13.8614904 Z M167.701193,14.7239924 C167.701193,16.5239966 167.927419,18.0990002 168.685014,19.1490026 C169.404729,20.1604633 170.579001,20.5740059 171.866913,20.5740059 C173.153772,20.5740059 174.328044,20.1604633 175.047759,19.1490026 C175.806406,18.0990002 176.033684,16.5239966 176.033684,14.7239924 L176.033684,13.3000308 C176.033684,11.5000266 175.806406,9.92502296 175.047759,8.87502053 C174.328044,7.86251819 173.153772,7.45001723 171.866913,7.45001723 C170.579001,7.45001723 169.404729,7.8250181 168.685014,8.87502053 C167.966351,9.92502296 167.701193,11.5000266 167.701193,13.3000308 L167.701193,14.7239924 L167.701193,14.7239924 Z" id="Fill-17" sketch:type="MSShapeGroup"></path>
            </g>
        </g>
    </g>
</svg>