<?xml version="1.0" encoding="UTF-8" standalone="no"?>
<svg width="261px" height="70px" viewBox="0 0 261 70" version="1.1" xmlns="http://www.w3.org/2000/svg" xmlns:xlink="http://www.w3.org/1999/xlink" xmlns:sketch="http://www.bohemiancoding.com/sketch/ns">
    <!-- Generator: Sketch 3.3.3 (12081) - http://www.bohemiancoding.com/sketch -->
    <title>logo</title>
    <desc>Created with Sketch.</desc>
    <defs></defs>
    <g id="up-to-do-UI" stroke="none" stroke-width="1" fill="none" fill-rule="evenodd" sketch:type="MSPage">
        <g id="Login" sketch:type="MSArtboardGroup" transform="translate(-382.000000, -99.000000)" fill="#E64A19">
            <g id="logo" sketch:type="MSLayerGroup" transform="translate(382.000000, 99.000000)">
                <path d="M8.59802247,55.881875 L8.59802247,68.7691667 C8.40446629,68.8741667 8.10452809,68.9164583 7.6317191,68.9164583 C7.16038764,68.9164583 6.83976404,68.8741667 6.64620787,68.7691667 L6.64620787,55.881875 L1.99347191,55.881875 C1.88708989,55.6704167 1.84276404,55.3729167 1.84276404,55.0141667 C1.84276404,54.6539583 1.88708989,54.3797917 1.99347191,54.166875 L13.2285955,54.166875 C13.3364551,54.3797917 13.3778258,54.6539583 13.3778258,55.0141667 C13.3778258,55.3729167 13.3364551,55.6704167 13.2285955,55.881875 L8.59802247,55.881875" id="Fill-1" sketch:type="MSShapeGroup"></path>
                <path d="M30.9456348,64.6420833 L24.6838708,64.6420833 L23.2048652,68.74875 C22.9906236,68.85375 22.67,68.9164583 22.1543427,68.9164583 C21.6830112,68.9164583 21.3609101,68.85375 21.1895169,68.74875 L26.6563708,54.1245833 C26.8927753,54.04 27.4069551,53.9977083 27.8576011,53.9977083 C28.3082472,53.9977083 28.822427,54.04 29.0588315,54.1245833 L34.4828371,68.74875 C34.3114438,68.85375 33.9671798,68.9164583 33.4973258,68.9164583 C32.9816685,68.9164583 32.6595674,68.85375 32.4453258,68.74875 L30.9456348,64.6420833 L30.9456348,64.6420833 Z M30.3664438,62.99125 L29.2302247,59.8179167 C28.6717191,58.2720833 28.2003876,56.791875 27.8576011,55.2460417 L27.7719045,55.2460417 C27.4498034,56.7277083 26.9149382,58.358125 26.3992809,59.7960417 L25.2630618,62.99125 L30.3664438,62.99125 L30.3664438,62.99125 Z" id="Fill-2" sketch:type="MSShapeGroup"></path>
                <path d="M49.1783315,67.6054167 C51.5364663,67.6054167 52.5441404,66.63125 52.5441404,65.1072917 C52.5441404,61.1508333 44.9540787,62.9504167 44.9540787,57.7441667 C44.9540787,55.1410417 46.7345,53.68125 49.6925112,53.68125 C51.0858202,53.68125 52.3298989,53.9977083 53.3582584,54.6758333 C53.6596742,55.1614583 53.8532303,56.0714583 53.7453708,56.7277083 C52.6505225,55.9241667 51.2793764,55.4152083 49.8003708,55.4152083 C47.8914045,55.4152083 46.9265787,56.240625 46.9265787,57.4889583 C46.9265787,61.17125 54.4959551,59.5422917 54.4959551,64.8535417 C54.4959551,68.2616667 52.0299607,69.36125 49.1561685,69.36125 C47.4629213,69.36125 45.9410674,68.980625 44.9112303,68.4089583 C44.5684438,67.8795833 44.4398989,66.9914583 44.5255955,66.355625 C45.7475112,67.1402083 47.5707809,67.6054167 49.1783315,67.6054167" id="Fill-3" sketch:type="MSShapeGroup"></path>
                <path d="M66.2097978,54.2733333 C66.4018764,54.166875 66.7239775,54.1245833 67.195309,54.1245833 C67.668118,54.1245833 67.9680562,54.166875 68.1601348,54.2733333 L68.1601348,60.4945833 L69.9405562,60.4945833 L74.6346629,54.29375 C74.8710674,54.18875 75.3010281,54.1245833 75.8358933,54.1245833 C76.3929213,54.1245833 76.6928596,54.18875 76.8864157,54.29375 L71.5259438,61.32 L77.402073,68.74875 C77.2292022,68.8741667 76.8435674,68.9164583 76.2643764,68.9164583 C75.6866629,68.9164583 75.2567022,68.8741667 74.978927,68.74875 L69.8120112,62.1877083 L68.1601348,62.1877083 L68.1601348,68.7691667 C67.9680562,68.8741667 67.668118,68.9164583 67.195309,68.9164583 C66.7239775,68.9164583 66.4018764,68.8741667 66.2097978,68.7691667 L66.2097978,54.2733333" id="Fill-4" sketch:type="MSShapeGroup"></path>
                <path d="M114.140809,55.5858333 L114.055112,55.5858333 C113.798022,56.8122917 113.455236,58.0825 113.047438,59.24625 L109.638781,68.8960417 C109.467388,68.980625 109.05959,69.0447917 108.608944,69.0447917 C108.158298,69.0447917 107.751978,68.980625 107.580584,68.8960417 L104.149764,59.224375 C103.827663,58.33625 103.442028,56.8122917 103.184938,55.5858333 L103.099242,55.5858333 L103.099242,68.7691667 C102.905685,68.8741667 102.62791,68.9164583 102.155101,68.9164583 C101.726618,68.9164583 101.447365,68.8741667 101.255287,68.7691667 L101.255287,54.29375 C101.577388,54.18875 102.069404,54.1245833 102.756455,54.1245833 C103.464191,54.1245833 103.935522,54.18875 104.256146,54.29375 L107.536258,63.3514583 C107.988382,64.5997917 108.331169,65.996875 108.588258,67.3939583 L108.673955,67.3939583 C108.931045,65.9764583 109.31668,64.579375 109.745163,63.3733333 L112.961742,54.29375 C113.283843,54.18875 113.777337,54.1245833 114.46291,54.1245833 C115.169169,54.1245833 115.662663,54.18875 115.984764,54.29375 L115.984764,68.7691667 C115.791208,68.8741667 115.535596,68.9164583 115.062787,68.9164583 C114.634303,68.9164583 114.334365,68.8741667 114.140809,68.7691667 L114.140809,55.5858333" id="Fill-5" sketch:type="MSShapeGroup"></path>
                <path d="M136.856326,64.6420833 L130.596039,64.6420833 L129.117034,68.74875 C128.901315,68.85375 128.580691,68.9164583 128.066511,68.9164583 C127.593702,68.9164583 127.273079,68.85375 127.101685,68.74875 L132.568539,54.1245833 C132.804944,54.04 133.319124,53.9977083 133.768292,53.9977083 C134.220416,53.9977083 134.734596,54.04 134.969522,54.1245833 L140.395006,68.74875 C140.223612,68.85375 139.879348,68.9164583 139.408017,68.9164583 C138.893837,68.9164583 138.571736,68.85375 138.357494,68.74875 L136.856326,64.6420833 L136.856326,64.6420833 Z M136.278612,62.99125 L135.140916,59.8179167 C134.583888,58.2720833 134.112556,56.791875 133.768292,55.2460417 L133.684073,55.2460417 C133.361972,56.7277083 132.825629,58.358125 132.311449,59.7960417 L131.17523,62.99125 L136.278612,62.99125 L136.278612,62.99125 Z" id="Fill-6" sketch:type="MSShapeGroup"></path>
                <path d="M153.330764,68.7691667 C153.137208,68.8741667 152.880118,68.9164583 152.430949,68.9164583 C151.980303,68.9164583 151.702528,68.8741667 151.508972,68.7691667 L151.508972,54.2514583 C151.80891,54.166875 152.17386,54.1041667 152.795899,54.1041667 C153.395775,54.1041667 153.738562,54.166875 154.016337,54.2514583 L159.84814,63.7116667 C160.47018,64.70625 160.985837,65.8277083 161.307938,66.9491667 L161.392157,66.9491667 L161.392157,54.2733333 C161.585713,54.166875 161.842803,54.1245833 162.293449,54.1245833 C162.742618,54.1245833 163.021871,54.166875 163.215427,54.2733333 L163.215427,68.8333333 C162.958337,68.9164583 162.614073,68.980625 161.993511,68.980625 C161.41432,68.980625 161.049371,68.9164583 160.814444,68.8333333 L154.725551,58.9502083 C154.18773,58.1029167 153.716399,56.9814583 153.416461,55.9445833 L153.330764,55.9445833 L153.330764,68.7691667" id="Fill-7" sketch:type="MSShapeGroup"></path>
                <path d="M184.085511,64.6420833 L177.825225,64.6420833 L176.344742,68.74875 C176.131978,68.85375 175.809876,68.9164583 175.294219,68.9164583 C174.822888,68.9164583 174.500787,68.85375 174.329393,68.74875 L179.797725,54.1245833 C180.032652,54.04 180.548309,53.9977083 180.998955,53.9977083 C181.448124,53.9977083 181.962303,54.04 182.198708,54.1245833 L187.622713,68.74875 C187.45132,68.85375 187.110011,68.9164583 186.637202,68.9164583 C186.123022,68.9164583 185.800921,68.85375 185.58668,68.74875 L184.085511,64.6420833 L184.085511,64.6420833 Z M183.50632,62.99125 L182.370101,59.8179167 C181.811596,58.2720833 181.340264,56.791875 180.998955,55.2460417 L180.911781,55.2460417 C180.58968,56.7277083 180.054815,58.358125 179.539157,59.7960417 L178.404416,62.99125 L183.50632,62.99125 L183.50632,62.99125 Z" id="Fill-8" sketch:type="MSShapeGroup"></path>
                <path d="M204.506427,69.36125 C199.961551,69.36125 197.279837,66.5466667 197.279837,61.7429167 C197.279837,56.4739583 200.474253,53.68125 204.977758,53.68125 C206.391753,53.68125 207.67868,53.935 208.62282,54.4425 C208.922758,54.9077083 209.114837,55.7127083 209.02914,56.3252083 C207.851551,55.733125 206.585309,55.4370833 205.234848,55.4370833 C201.783343,55.4370833 199.296663,57.2775 199.296663,61.595625 C199.296663,65.743125 201.524775,67.5835417 204.784202,67.5835417 C205.920421,67.5835417 207.035955,67.3516667 207.786539,67.03375 L207.786539,62.505625 L204.012933,62.505625 C203.947921,62.356875 203.884388,62.0608333 203.884388,61.6583333 C203.884388,61.2995833 203.947921,61.0035417 204.012933,60.8547917 L209.65118,60.8547917 L209.65118,68.219375 C208.429264,68.8333333 206.456764,69.36125 204.506427,69.36125" id="Fill-9" sketch:type="MSShapeGroup"></path>
                <path d="M231.229,54.166875 C231.335382,54.3797917 231.37823,54.6539583 231.37823,55.0141667 C231.37823,55.3729167 231.335382,55.6485417 231.229,55.86 L223.724635,55.86 L223.724635,60.55875 L230.692657,60.55875 C230.800517,60.7702083 230.841888,61.0239583 230.841888,61.3841667 C230.841888,61.7429167 230.800517,62.0185417 230.692657,62.23 L223.724635,62.23 L223.724635,67.160625 L231.422556,67.160625 C231.528938,67.3720833 231.571787,67.6477083 231.571787,68.0079167 C231.571787,68.3666667 231.528938,68.6627083 231.422556,68.8741667 L221.77282,68.8741667 L221.77282,54.166875 L231.229,54.166875" id="Fill-10" sketch:type="MSShapeGroup"></path>
                <path d="M243.393489,54.29375 C244.572556,54.061875 245.94518,53.9554167 247.338489,53.9554167 C251.305652,53.9554167 253.684472,55.3729167 253.684472,58.6322917 C253.684472,60.8547917 252.570416,62.23 250.855006,62.8439583 L254.671461,68.74875 C254.500067,68.8741667 254.114433,68.9164583 253.643101,68.9164583 C253.021062,68.9164583 252.656112,68.8741667 252.356174,68.74875 L248.925354,63.28875 C248.753961,63.3091667 248.282629,63.3310417 247.960528,63.3310417 C247.189258,63.3310417 245.923017,63.2464583 245.343826,63.161875 L245.343826,68.7691667 C245.151747,68.8741667 244.851809,68.9164583 244.379,68.9164583 C243.909146,68.9164583 243.587045,68.8741667 243.393489,68.7691667 L243.393489,54.29375 L243.393489,54.29375 Z M245.343826,55.8177083 L245.343826,61.4672917 C245.923017,61.57375 246.910006,61.6583333 247.682753,61.6583333 C250.255129,61.6583333 251.691287,60.8329167 251.691287,58.7591667 C251.691287,56.538125 250.018725,55.6485417 247.360652,55.6485417 C246.673601,55.6485417 245.988028,55.6908333 245.343826,55.8177083 L245.343826,55.8177083 Z" id="Fill-11" sketch:type="MSShapeGroup"></path>
                <path d="M0.118488764,7.7525 C0.118488764,2.60895833 1.92698315,0.718958333 6.23545506,0.718958333 L7.35098876,0.718958333 C11.6594607,0.718958333 13.4679551,2.60895833 13.4679551,7.7525 L13.4679551,21.7685417 C13.4679551,23.6060417 13.5743371,25.2335417 14.1594382,26.3885417 C14.9573034,27.9635417 16.5515562,28.8035417 18.2536685,28.8035417 L19.1047247,28.8035417 C20.8068371,28.8035417 22.4025674,27.9635417 23.2004326,26.3885417 C23.7855337,25.2335417 23.8919157,23.6060417 23.8919157,21.7685417 L23.8919157,7.7525 C23.8919157,5.91645833 23.9982978,4.2875 24.5833989,3.13395833 C25.381264,1.55895833 26.9769944,0.718958333 28.6776292,0.718958333 L29.5301629,0.718958333 C31.2322753,0.718958333 32.8265281,1.55895833 33.6243933,3.13395833 C34.2094944,4.2875 34.3158764,5.91645833 34.3158764,7.7525 L34.3158764,25.1810417 C34.3158764,34.3670833 28.9450618,38.5145833 21.3387472,38.5145833 L14.5317753,38.5145833 C5.91630899,38.5145833 0.118488764,33.6845833 0.118488764,25.0760417 L0.118488764,7.7525" id="Fill-12" sketch:type="MSShapeGroup"></path>
                <path d="M59.7426573,0.718958333 C68.1453596,0.718958333 73.3048876,5.91645833 73.3048876,12.8975 C73.3048876,16.3625 72.0814944,19.9325 69.2623708,21.9260417 C67.0298258,23.5010417 64.2107022,23.8685417 59.7426573,23.8685417 L51.9250562,23.8685417 L51.9250562,31.4795833 C51.9250562,36.6245833 50.1165618,38.5145833 45.8080899,38.5145833 L44.6910787,38.5145833 C40.3840843,38.5145833 38.5755899,36.6245833 38.5755899,31.4795833 L38.5755899,7.7525 C38.5755899,2.60895833 40.3840843,0.718958333 44.6910787,0.718958333 L59.7426573,0.718958333 L59.7426573,0.718958333 Z M55.754809,16.6235417 C56.8703427,16.6235417 57.8809719,16.4660417 58.5724551,16.1 C59.5298933,15.575 60.0618034,14.63 60.0618034,13.5275 C60.0618034,12.425 59.5298933,11.48 58.5724551,10.955 C57.8809719,10.5875 56.8703427,10.43 55.754809,10.43 L51.9250562,10.43 L51.9250562,16.6235417 L55.754809,16.6235417 L55.754809,16.6235417 Z" id="Fill-13" sketch:type="MSShapeGroup"></path>
                <path d="M121.336371,0.718958333 C124.261876,0.718958333 126.229944,2.71395833 126.229944,5.6 C126.229944,8.4875 124.261876,10.4825 121.336371,10.4825 L113.891107,10.4825 L113.891107,31.4795833 C113.891107,36.6245833 112.082612,38.5145833 107.77414,38.5145833 L106.657129,38.5145833 C102.350135,38.5145833 100.54164,36.6245833 100.54164,31.4795833 L100.54164,10.4825 L93.0963764,10.4825 C90.1708708,10.4825 88.2028034,8.4875 88.2028034,5.6 C88.2028034,2.71395833 90.1708708,0.718958333 93.0963764,0.718958333 L121.336371,0.718958333" id="Fill-14" sketch:type="MSShapeGroup"></path>
                <path d="M127.828629,19.4060417 C127.828629,14.2625 129.583933,9.38 132.988157,6.02 C136.816433,2.29395833 141.550433,0.718958333 146.709961,0.718958333 L147.773781,0.718958333 C152.933309,0.718958333 157.667309,2.29395833 161.495584,6.02 C164.898331,9.38 166.655112,14.2625 166.655112,19.4060417 L166.655112,19.8260417 C166.655112,24.9710417 164.898331,29.8520833 161.495584,33.2120833 C157.667309,36.9395833 152.933309,38.5145833 147.773781,38.5145833 L146.709961,38.5145833 C141.550433,38.5145833 136.816433,36.9395833 132.988157,33.2120833 C129.583933,29.8520833 127.828629,24.9710417 127.828629,19.8260417 L127.828629,19.4060417 L127.828629,19.4060417 Z M141.39086,20.6135417 C141.39086,23.1335417 141.710006,25.3385417 142.773826,26.8085417 C143.784455,28.2245833 145.433376,28.8035417 147.241871,28.8035417 C149.050365,28.8035417 150.699287,28.2245833 151.708438,26.8085417 C152.772258,25.3385417 153.091404,23.1335417 153.091404,20.6135417 L153.091404,18.62 C153.091404,16.1 152.772258,13.895 151.708438,12.425 C150.699287,11.0075 149.050365,10.43 147.241871,10.43 C145.433376,10.43 143.784455,10.955 142.773826,12.425 C141.763197,13.895 141.39086,16.1 141.39086,18.62 L141.39086,20.6135417 L141.39086,20.6135417 Z" id="Fill-15" sketch:type="MSShapeGroup"></path>
                <path d="M201.283938,0.718958333 C206.441989,0.718958333 211.282371,2.29395833 214.952551,6.1775 C218.356775,9.8 219.792933,14.2625 219.792933,19.4060417 L219.792933,19.8260417 C219.792933,24.9710417 218.356775,29.4335417 214.952551,33.0545833 C211.282371,36.9395833 206.441989,38.5145833 201.283938,38.5145833 L189.265725,38.5145833 C184.955775,38.5145833 183.148758,36.6245833 183.148758,31.4795833 L183.148758,7.7525 C183.148758,2.60895833 184.955775,0.718958333 189.265725,0.718958333 L201.283938,0.718958333 L201.283938,0.718958333 Z M206.761135,18.62 C206.761135,15.9425 206.496657,13.685 205.271787,12.2675 C204.156253,10.955 202.294567,10.43 200.379691,10.43 L196.496747,10.43 L196.496747,28.8035417 L200.379691,28.8035417 C202.294567,28.8035417 204.156253,28.2785417 205.271787,26.9660417 C206.496657,25.5485417 206.761135,23.2910417 206.761135,20.6135417 L206.761135,18.62 L206.761135,18.62 Z" id="Fill-16" sketch:type="MSShapeGroup"></path>
                <path d="M221.923528,19.4060417 C221.923528,14.2625 223.680309,9.38 227.083056,6.02 C230.912809,2.29395833 235.645331,0.718958333 240.80486,0.718958333 L241.86868,0.718958333 C247.02673,0.718958333 251.76073,2.29395833 255.589006,6.02 C258.99323,9.38 260.748534,14.2625 260.748534,19.4060417 L260.748534,19.8260417 C260.748534,24.9710417 258.99323,29.8520833 255.589006,33.2120833 C251.76073,36.9395833 247.02673,38.5145833 241.86868,38.5145833 L240.80486,38.5145833 C235.645331,38.5145833 230.912809,36.9395833 227.083056,33.2120833 C223.680309,29.8520833 221.923528,24.9710417 221.923528,19.8260417 L221.923528,19.4060417 L221.923528,19.4060417 Z M235.487236,20.6135417 C235.487236,23.1335417 235.804904,25.3385417 236.868725,26.8085417 C237.879354,28.2245833 239.528275,28.8035417 241.33677,28.8035417 C243.143787,28.8035417 244.792708,28.2245833 245.803337,26.8085417 C246.868635,25.3385417 247.187781,23.1335417 247.187781,20.6135417 L247.187781,18.62 C247.187781,16.1 246.868635,13.895 245.803337,12.425 C244.792708,11.0075 243.143787,10.43 241.33677,10.43 C239.528275,10.43 237.879354,10.955 236.868725,12.425 C235.859573,13.895 235.487236,16.1 235.487236,18.62 L235.487236,20.6135417 L235.487236,20.6135417 Z" id="Fill-17" sketch:type="MSShapeGroup"></path>
            </g>
        </g>
    </g>
</svg>