<?xml version="1.0" encoding="UTF-8"?>
<svg width="115px" height="115px" viewBox="0 0 115 115" version="1.1" xmlns="http://www.w3.org/2000/svg" xmlns:xlink="http://www.w3.org/1999/xlink">
    <!-- Generator: Sketch 43.1 (39012) - http://www.bohemiancoding.com/sketch -->
    <title>profile</title>
    <desc>Created with Sketch.</desc>
    <defs>
        <circle id="path-1" cx="54.5" cy="54.5" r="54.5"></circle>
    </defs>
    <g id="up-to-do-UI" stroke="none" stroke-width="1" fill="none" fill-rule="evenodd">
        <g id="Landing-Page-Copy" transform="translate(-767.000000, -742.000000)">
            <g id="profile" transform="translate(770.000000, 745.000000)">
                <mask id="mask-2" fill="white">
                    <use xlink:href="#path-1"></use>
                </mask>
                <g id="Oval-4-Copy-2" stroke-linecap="square">
                    <use fill="#E2E8EF" fill-rule="evenodd" xlink:href="#path-1"></use>
                    <circle stroke="#4A4A4A" stroke-width="3" cx="54.5" cy="54.5" r="56"></circle>
                </g>
                <path d="M31.375,72 L62.3300781,72 L65.0722656,75.375 L31.3222656,75.375 C30.4081986,75.375 29.6259798,75.041019 28.9755859,74.3730469 C28.3251921,73.7050748 28,72.9140671 28,72 L28,66.9375 C28,65.9882765 28.5537054,65.1884798 29.6611328,64.5380859 L31.3222656,63.5625 L46.140625,56.5488281 C44.9804629,55.5996046 43.9960978,54.4658269 43.1875,53.1474609 C42.3789022,51.829095 41.7197291,50.4668039 41.2099609,49.0605469 C40.7001928,47.6542898 40.3310558,46.2919988 40.1025391,44.9736328 C39.8740223,43.6552668 39.7597656,42.5390671 39.7597656,41.625 L39.7597656,33.1875 C39.7597656,31.781243 40.1992144,30.375007 41.078125,28.96875 C41.9570356,27.562493 43.1171803,26.2968806 44.5585938,25.171875 C46.0000072,24.0468694 47.6259675,23.132816 49.4365234,22.4296875 C51.2470794,21.726559 53.0839751,21.375 54.9472656,21.375 C56.8105562,21.375 58.6474519,21.726559 60.4580078,22.4296875 C62.2685637,23.132816 63.894524,24.0468694 65.3359375,25.171875 C66.777351,26.2968806 67.9374956,27.562493 68.8164062,28.96875 C69.6953169,30.375007 70.1347656,31.781243 70.1347656,33.1875 L70.1347656,41.625 C70.1347656,42.6445363 70.0292979,43.8222589 69.8183594,45.1582031 C69.6074208,46.4941473 69.2558618,47.8564384 68.7636719,49.2451172 C68.2714819,50.633796 67.6298868,51.9785091 66.8388672,53.2792969 C66.0478476,54.5800846 65.0722714,55.6874954 63.9121094,56.6015625 L73.0351562,60.8730469 L71.03125,63.7207031 L62.4882812,59.6601562 C61.9609349,59.4140613 61.5214861,59.0537133 61.1699219,58.5791016 C60.8183576,58.1044898 60.6074222,57.5683624 60.5371094,56.9707031 C60.4667965,56.4082003 60.5458973,55.8544949 60.7744141,55.3095703 C61.0029308,54.7646457 61.3457008,54.2988301 61.8027344,53.9121094 C63.5957121,52.5058523 64.8701134,50.5107551 65.6259766,47.9267578 C66.3818397,45.3427605 66.7597656,43.2421956 66.7597656,41.625 L66.7597656,33.1875 C66.7597656,32.2734329 66.4169956,31.3242237 65.7314453,30.3398438 C65.045895,29.3554638 64.1406306,28.4501994 63.015625,27.6240234 C61.8906194,26.7978474 60.625007,26.1123074 59.21875,25.5673828 C57.812493,25.0224582 56.3886791,24.75 54.9472656,24.75 C53.5410086,24.75 52.1347727,25.0224582 50.7285156,25.5673828 C49.3222586,26.1123074 48.0566463,26.8066364 46.9316406,27.6503906 C45.806635,28.4941448 44.8925816,29.4081982 44.1894531,30.3925781 C43.4863246,31.376958 43.1347656,32.3085894 43.1347656,33.1875 L43.1347656,41.625 C43.1347656,43.277352 43.5566364,45.3867059 44.4003906,47.953125 C45.2441448,50.5195441 46.5449131,52.5058523 48.3027344,53.9121094 C48.7597679,54.2988301 49.0937489,54.7558567 49.3046875,55.2832031 C49.5156261,55.8105495 49.5859379,56.3730439 49.515625,56.9707031 C49.4453121,57.5332059 49.2343768,58.0517554 48.8828125,58.5263672 C48.5312482,59.0009789 48.0917995,59.3613269 47.5644531,59.6074219 L32.7460938,66.6210938 C32.5703116,66.726563 32.2978534,66.9111315 31.9287109,67.1748047 C31.5595685,67.4384779 31.375,67.9042935 31.375,68.5722656 L31.375,72 Z M81.3671875,59.5546875 C81.7539082,59.8359389 81.9736325,60.2050758 82.0263672,60.6621094 C82.0791018,61.1191429 81.9648452,61.5234357 81.6835938,61.875 L73.6152344,74.1621094 C73.5800779,74.2675787 73.5361331,74.3642574 73.4833984,74.4521484 C73.4306638,74.5400395 73.369141,74.6191403 73.2988281,74.6894531 C72.9472639,75.005861 72.542971,75.1640625 72.0859375,75.1640625 C71.628904,75.1640625 71.2246111,75.005861 70.8730469,74.6894531 L64.9140625,68.7304687 C64.5976547,68.3789045 64.4394531,67.9746117 64.4394531,67.5175781 C64.4394531,67.0605446 64.5976547,66.6738297 64.9140625,66.3574219 C65.2304703,66.0058576 65.6259742,65.8300781 66.1005859,65.8300781 C66.5751977,65.8300781 66.9707015,66.0058576 67.2871094,66.3574219 L71.7695312,70.8398437 L78.9941406,59.8183594 C79.275392,59.4667951 79.6533179,59.2558597 80.1279297,59.1855469 C80.6025414,59.115234 81.0156232,59.2382797 81.3671875,59.5546875 Z" id="User-following---simple-line-icons" fill="#7ED321" mask="url(#mask-2)"></path>
            </g>
        </g>
    </g>
</svg>